<svg width="125" height="121" viewBox="0 0 125 121" fill="none" xmlns="http://www.w3.org/2000/svg">
<path d="M96.7775 120.761H33.5176C25.9526 120.761 19.6301 115.088 18.8126 107.57L15.2026 74.4403C9.60258 73.3398 5.36755 68.3925 5.36755 62.4775V56.3055C5.36755 49.583 10.8351 44.1133 17.5601 44.1133H34.5426L51.7526 11.1328C53.4926 7.80278 56.9076 5.73228 60.6676 5.73228C62.2151 5.73228 63.7601 6.09577 65.1476 6.78802C66.5351 6.09577 68.0801 5.73228 69.6276 5.73228C73.3876 5.73228 76.8026 7.80278 78.5451 11.1378L95.7526 44.1133H112.735C119.46 44.1133 124.928 49.583 124.928 56.3055V62.4775C124.928 68.3925 120.69 73.3398 115.088 74.4403L111.483 107.57C110.663 115.09 104.34 120.761 96.7775 120.761Z" fill="#666669"/>
<path d="M107.37 38.3829H90.385L73.18 5.40538C71.4375 2.07038 68.0175 0.00012207 64.26 0.00012207H64.2575C62.7125 0.00012207 61.1675 0.365368 59.78 1.05562C58.395 0.365368 56.85 0.00012207 55.3 0.00012207C51.5425 0.00012207 48.1225 2.07037 46.3825 5.40237L29.1725 38.3829H12.19C5.47 38.3829 0 43.8526 0 50.5734V56.7451C0 62.6631 4.23749 67.6074 9.83749 68.7081L13.445 101.838C14.2625 109.357 20.585 115.03 28.1475 115.03H91.4125C98.9725 115.03 105.295 109.357 106.115 101.84L109.722 68.7081C115.322 67.6104 119.56 62.6631 119.56 56.7451V50.5734C119.56 43.8526 114.09 38.3829 107.37 38.3829Z" fill="white"/>
<path d="M112.242 56.7452C112.242 59.4357 110.06 61.6155 107.37 61.6155H12.19C9.5 61.6155 7.3175 59.4357 7.3175 56.7452V50.5735C7.3175 47.88 9.5 45.7005 12.19 45.7005H107.37C110.06 45.7005 112.242 47.88 112.242 50.5735V56.7452Z" fill="#3BAF31"/>
<path d="M36.4025 52.1877C35.705 53.5274 34.0475 54.0479 32.7075 53.3477C31.3675 52.6477 30.8475 50.9932 31.5475 49.6524L52.87 8.79018C53.57 7.45043 55.225 6.93067 56.5625 7.62992C57.905 8.33017 58.425 9.98243 57.725 11.3234L36.4025 52.1877Z" fill="#42403D"/>
<path d="M83.1575 52.1877C83.855 53.5274 85.51 54.0479 86.8525 53.3477C88.1925 52.6477 88.7125 50.9932 88.01 49.6524L66.69 8.79018C65.99 7.45043 64.3375 6.93067 62.9975 7.62992C61.6525 8.33017 61.1325 9.98243 61.835 11.3234L83.1575 52.1877Z" fill="#282725"/>
<path d="M56.5676 72.1456H21.9626L21.2826 65.8956H56.5676V72.1456ZM56.5676 83.4628H23.1951L22.5151 77.2128H56.5676V83.4628ZM56.5676 94.7753H24.4276L23.7476 88.5273H56.5676V94.7753ZM16.4276 61.6153L20.7201 101.045C21.1326 104.835 24.3351 107.71 28.1476 107.71H59.7776V61.6153H16.4276Z" fill="#02822F"/>
<path d="M97.5951 72.1456H62.9926V65.8956H98.2776L97.5951 72.1456ZM96.3651 83.4628H62.9926V77.2128H97.0451L96.3651 83.4628ZM95.1326 94.7753H62.9926V88.5273H95.8126L95.1326 94.7753ZM59.7776 61.6153V107.71H91.4126C95.2251 107.71 98.4251 104.835 98.8376 101.045L103.133 61.6153H59.7776Z" fill="#025B1D"/>
<path d="M24.565 89.2608H55.835V94.0448H25.085L24.565 89.2608ZM63.725 89.2608H94.995L94.475 94.0448H63.725V89.2608ZM23.33 77.9453H55.835V82.7305H23.85L23.33 77.9453ZM63.725 77.9453H96.23L95.71 82.7305H63.725V77.9453ZM22.0975 66.6278H55.835V71.413H22.62L22.0975 66.6278ZM63.725 66.6278H97.4625L96.94 71.413H63.725V66.6278ZM64.26 6.58779C63.705 6.58779 63.15 6.72254 62.6575 6.98229C61.835 7.41004 61.23 8.13279 60.95 9.01554C60.675 9.90229 60.7575 10.8428 61.1875 11.663L78.565 44.9678H40.995L58.375 11.663C58.805 10.8398 58.8875 9.90229 58.61 9.01554C58.33 8.13279 57.725 7.41004 56.9025 6.98054C56.41 6.72254 55.855 6.58779 55.3 6.58779C54.0025 6.58779 52.8225 7.30279 52.2225 8.45304L33.1675 44.9678H12.19C9.09997 44.9678 6.58746 47.4823 6.58746 50.5733V56.745C6.58746 59.833 9.09997 62.3475 12.19 62.3475H15.77L19.9925 101.125C20.4475 105.295 23.9525 108.44 28.1475 108.44H91.4125C95.6075 108.44 99.1125 105.295 99.5675 101.125L103.79 62.3475H107.37C110.46 62.3475 112.972 59.833 112.972 56.745V50.5733C112.972 47.4823 110.46 44.9678 107.37 44.9678H86.3925L67.34 8.45304C66.7375 7.30279 65.5575 6.58779 64.26 6.58779ZM24.4276 94.7753H56.5676V88.5273H23.7476L24.4276 94.7753ZM62.9926 94.7753H95.1326L95.815 88.5273L62.9926 88.5273V94.7753ZM23.1951 83.4628H56.5676V77.2128H22.5151L23.1951 83.4628ZM62.9926 83.4628H96.3651L97.0451 77.2128H62.9926V83.4628ZM21.9626 72.1456H56.5676V65.8956H21.2826L21.9626 72.1456ZM62.9926 72.1456H97.5951L98.2776 65.8956H62.9926V72.1456ZM64.26 7.32029C65.2475 7.32029 66.2 7.85268 66.69 8.79018L85.9475 45.7003L107.37 45.7005C110.06 45.7005 112.242 47.88 112.242 50.5735V56.7452C112.242 59.4357 110.06 61.6155 107.37 61.6155L103.133 61.6153L98.8376 101.045C98.4251 104.835 95.2251 107.71 91.4126 107.71H59.7776H28.1476C24.3351 107.71 21.1326 104.835 20.7201 101.045L16.4276 61.6153L12.19 61.6155C9.5 61.6155 7.3175 59.4357 7.3175 56.7452V50.5735C7.3175 47.88 9.5 45.7005 12.19 45.7005L33.61 45.7003L52.87 8.79018C53.36 7.85268 54.3125 7.32029 55.3 7.32029C55.725 7.32029 56.16 7.41992 56.5625 7.62992C57.905 8.33017 58.425 9.98243 57.725 11.3234L39.7875 45.7003H79.7725L61.835 11.3234C61.1325 9.98243 61.6525 8.33017 62.9975 7.62992C63.4 7.41992 63.835 7.32029 64.26 7.32029Z" fill="black"/>
</svg>
